<svg xmlns="http://www.w3.org/2000/svg" xmlns:xlink="http://www.w3.org/1999/xlink" viewBox="0 0 300 80">
  <defs>
    <linearGradient id="grad1" x1="0%" y1="0%" x2="100%" y2="100%">
      <stop offset="0%" style="stop-color:#4CAF50;stop-opacity:1" />
      <stop offset="100%" style="stop-color:#2196F3;stop-opacity:1" />
    </linearGradient>
  </defs>
  <g id="oak-soft-logo">
    <g transform="translate(10, 10)">
      <path id="leaf-outline" d="M30,60 C10,55 5,35 15,20 C20,12 30,15 35,5 C40,15 50,12 55,20 C65,35 60,55 40,60 L35,70 L30,60 Z" fill="none"/>
      <clipPath id="leaf-clip">
        <use xlink:href="#leaf-outline"/>
      </clipPath>
      <g clip-path="url(#leaf-clip)" fill="url(#grad1)">
        <rect x="5" y="10" width="8" height="8" rx="1" ry="1"/>
        <rect x="15" y="8" width="8" height="8" rx="1" ry="1"/>
        <rect x="25" y="12" width="8" height="8" rx="1" ry="1"/>
        <rect x="35" y="9" width="8" height="8" rx="1" ry="1"/>
        <rect x="45" y="11" width="8" height="8" rx="1" ry="1"/>
        <rect x="53" y="15" width="8" height="8" rx="1" ry="1"/>
        <rect x="8" y="20" width="8" height="8" rx="1" ry="1"/>
        <rect x="18" y="22" width="8" height="8" rx="1" ry="1"/>
        <rect x="28" y="19" width="8" height="8" rx="1" ry="1"/>
        <rect x="38" y="21" width="8" height="8" rx="1" ry="1"/>
        <rect x="48" y="23" width="8" height="8" rx="1" ry="1"/>
        <rect x="56" y="25" width="8" height="8" rx="1" ry="1"/>
        <rect x="10" y="30" width="8" height="8" rx="1" ry="1"/>
        <rect x="20" y="32" width="8" height="8" rx="1" ry="1"/>
        <rect x="30" y="29" width="8" height="8" rx="1" ry="1"/>
        <rect x="40" y="31" width="8" height="8" rx="1" ry="1"/>
        <rect x="50" y="33" width="8" height="8" rx="1" ry="1"/>
        <rect x="55" y="38" width="8" height="8" rx="1" ry="1"/>
        <rect x="12" y="40" width="8" height="8" rx="1" ry="1"/>
        <rect x="22" y="42" width="8" height="8" rx="1" ry="1"/>
        <rect x="32" y="39" width="8" height="8" rx="1" ry="1"/>
        <rect x="42" y="41" width="8" height="8" rx="1" ry="1"/>
        <rect x="50" y="45" width="8" height="8" rx="1" ry="1"/>
        <rect x="25" y="50" width="8" height="8" rx="1" ry="1"/>
        <rect x="35" y="52" width="8" height="8" rx="1" ry="1"/>
        <rect x="42" y="54" width="8" height="8" rx="1" ry="1"/>
        <rect x="30" y="58" width="8" height="8" rx="1" ry="1"/>
      </g>
      <path d="M35,68 L35,75" stroke="#555" stroke-width="3" stroke-linecap="round"/>
    </g>

    <text x="85" y="52" font-family="Arial, Helvetica, sans-serif" font-weight="bold" font-size="36" fill="#333" letter-spacing="-1">Oak</text>
    <text x="155" y="52" font-family="Arial, Helvetica, sans-serif" font-weight="normal" font-size="36" fill="#2196F3" letter-spacing="0">Soft</text>
  </g>
</svg>